<svg width="512" height="512" viewBox="0 0 512 512" fill="none" xmlns="http://www.w3.org/2000/svg">
<path fill-rule="evenodd" clip-rule="evenodd" d="M198.434 204.669L187.15 212.714V273.164C187.15 281.214 180.623 287.739 172.575 287.739C164.525 287.739 158 281.211 158 273.164V205.257H158.04C158.043 200.718 160.165 196.249 164.148 193.415L210.416 160.415C209.891 161.655 209.452 162.942 209.104 164.264L198.434 204.669ZM263.939 79C282.692 79 297.892 94.1992 297.892 112.952C297.892 131.705 282.692 146.904 263.939 146.904C245.186 146.904 229.987 131.705 229.987 112.952C229.99 94.1992 245.189 79 263.939 79ZM226.984 195.94C221.88 189.734 222.777 180.565 228.983 175.461C235.19 170.356 244.359 171.253 249.463 177.46L281.657 216.117L342.621 230.604C350.465 232.462 355.317 240.327 353.459 248.175C351.602 256.019 343.737 260.871 335.889 259.014L270.201 243.403L270.212 243.354C267.222 242.648 264.428 240.991 262.327 238.438L226.984 195.94ZM213.447 165.416L198.88 220.546C198.848 220.79 198.783 222.58 198.684 222.58V277.622C198.684 283.13 201.334 288.014 205.431 291.076L267.753 342.684L287.178 421.249C289.388 430.231 298.461 435.72 307.44 433.512C316.422 431.301 321.911 422.228 319.703 413.249L299.133 330.032C298.413 326.368 296.47 322.918 293.371 320.352L255.567 289.047L255.562 237.316L223.537 198.803C216.822 190.729 218.042 178.639 226.136 171.986C234.229 165.327 246.227 166.542 252.918 174.577L267.389 191.954L270.319 182.223C274.907 166.978 250.713 152.307 232.08 150.854C222.908 149.735 215.891 156.305 213.448 165.413L213.447 165.416ZM196.49 422.66C193.484 431.425 183.944 436.092 175.181 433.087C166.416 430.082 161.748 420.541 164.753 411.778L205.57 297.016L233.174 319.878L196.49 422.66Z" fill="#CF1E1E"/>
</svg>
