<svg width="57" height="57" viewBox="0 0 57 57" fill="none" xmlns="http://www.w3.org/2000/svg">
<g filter="url(#filter0_d_898_52461)">
<circle cx="28.4224" cy="19.4224" r="16.4224" fill="#9F2241"/>
<circle cx="28.4224" cy="19.4224" r="17.6724" stroke="white" stroke-width="2.5"/>
</g>
<g opacity="0.8">
<path fill-rule="evenodd" clip-rule="evenodd" d="M28.3974 12.5146C24.1875 12.5146 20.381 14.2688 17.6797 17.0929L20.0478 19.5838C22.1352 17.356 25.0996 15.9527 28.3974 15.9527C31.7303 15.9527 34.7298 17.3911 36.8172 19.6715L39.1853 17.1806C36.4839 14.3214 32.6424 12.5146 28.3974 12.5146ZM34.6423 21.9525L32.2566 24.4433C31.362 23.2856 29.9587 22.5313 28.3976 22.5313C26.8715 22.5313 25.5032 23.233 24.6086 24.3381L22.223 21.8472C23.7491 20.1633 25.9418 19.0932 28.3976 19.0932C30.8884 19.1108 33.1162 20.2159 34.6423 21.9525ZM26.8524 26.7056C27.1155 26.1092 27.7119 25.7058 28.396 25.7058C29.1327 25.7058 29.7467 26.1619 29.9922 26.8284C30.0624 27.0038 30.0975 27.2143 30.0975 27.4073C30.0975 27.4599 30.0975 27.5125 30.08 27.5652C29.9922 28.4247 29.2731 29.0913 28.396 29.0913C27.4663 29.0913 26.712 28.337 26.712 27.4073V27.3897C26.712 27.1442 26.7647 26.9161 26.8524 26.7056Z" fill="white"/>
</g>
<defs>
<filter id="filter0_d_898_52461" x="0.5009" y="0.5" width="55.8439" height="55.8429" filterUnits="userSpaceOnUse" color-interpolation-filters="sRGB">
<feFlood flood-opacity="0" result="BackgroundImageFix"/>
<feColorMatrix in="SourceAlpha" type="matrix" values="0 0 0 0 0 0 0 0 0 0 0 0 0 0 0 0 0 0 127 0" result="hardAlpha"/>
<feOffset dy="8.9991"/>
<feGaussianBlur stdDeviation="4.49955"/>
<feComposite in2="hardAlpha" operator="out"/>
<feColorMatrix type="matrix" values="0 0 0 0 0 0 0 0 0 0 0 0 0 0 0 0 0 0 0.25 0"/>
<feBlend mode="normal" in2="BackgroundImageFix" result="effect1_dropShadow_898_52461"/>
<feBlend mode="normal" in="SourceGraphic" in2="effect1_dropShadow_898_52461" result="shape"/>
</filter>
</defs>
</svg>
